<svg width="24" height="63" viewBox="0 0 24 63" fill="none" xmlns="http://www.w3.org/2000/svg">
<path fill-rule="evenodd" clip-rule="evenodd" d="M22 24V11C22 5.47715 17.5228 1 12 1C6.47715 1 2 5.47715 2 11V24C2 29.5228 6.47715 34 12 34C17.5228 34 22 29.5228 22 24ZM12 0C5.92487 0 1 4.92487 1 11V24C1 30.0751 5.92487 35 12 35C18.0751 35 23 30.0751 23 24V11C23 4.92487 18.0751 0 12 0ZM4.53033 42.4697C4.23744 42.1768 3.76256 42.1768 3.46967 42.4697C3.17678 42.7626 3.17678 43.2374 3.46967 43.5303L11.4697 51.5303C11.7626 51.8232 12.2374 51.8232 12.5303 51.5303L20.5303 43.5303C20.8232 43.2374 20.8232 42.7626 20.5303 42.4697C20.2374 42.1768 19.7626 42.1768 19.4697 42.4697L12 49.9393L4.53033 42.4697ZM4.53033 50.4697C4.23744 50.1768 3.76256 50.1768 3.46967 50.4697C3.17678 50.7626 3.17678 51.2374 3.46967 51.5303L11.4697 59.5303C11.7626 59.8232 12.2374 59.8232 12.5303 59.5303L20.5303 51.5303C20.8232 51.2374 20.8232 50.7626 20.5303 50.4697C20.2374 50.1768 19.7626 50.1768 19.4697 50.4697L12 57.9393L4.53033 50.4697ZM12 11C13.6569 11 15 9.65685 15 8C15 6.34315 13.6569 5 12 5C10.3431 5 9 6.34315 9 8C9 9.65685 10.3431 11 12 11Z" fill="white"/>
</svg>
