<svg width="46" height="51" viewBox="0 0 46 51" fill="none" xmlns="http://www.w3.org/2000/svg">
<path fill-rule="evenodd" clip-rule="evenodd" d="M14.4697 29.4697C14.7626 29.1768 15.2374 29.1768 15.5303 29.4697L23 36.9393L30.4697 29.4697C30.7626 29.1768 31.2374 29.1768 31.5303 29.4697C31.8232 29.7626 31.8232 30.2374 31.5303 30.5303L23.5303 38.5303C23.2374 38.8232 22.7626 38.8232 22.4697 38.5303L14.4697 30.5303C14.1768 30.2374 14.1768 29.7626 14.4697 29.4697Z" fill="white"/>
<path d="M9.8518 17.12C9.0618 17.12 8.2968 17 7.5568 16.76C6.8268 16.51 6.2518 16.19 5.8318 15.8L6.3868 14.63C6.7868 14.99 7.2968 15.285 7.9168 15.515C8.5468 15.735 9.1918 15.845 9.8518 15.845C10.7218 15.845 11.3718 15.7 11.8018 15.41C12.2318 15.11 12.4468 14.715 12.4468 14.225C12.4468 13.865 12.3268 13.575 12.0868 13.355C11.8568 13.125 11.5668 12.95 11.2168 12.83C10.8768 12.71 10.3918 12.575 9.7618 12.425C8.9718 12.235 8.3318 12.045 7.8418 11.855C7.3618 11.665 6.9468 11.375 6.5968 10.985C6.2568 10.585 6.0868 10.05 6.0868 9.38C6.0868 8.82 6.2318 8.315 6.5218 7.865C6.8218 7.415 7.2718 7.055 7.8718 6.785C8.4718 6.515 9.2168 6.38 10.1068 6.38C10.7268 6.38 11.3368 6.46 11.9368 6.62C12.5368 6.78 13.0518 7.01 13.4818 7.31L12.9868 8.51C12.5468 8.23 12.0768 8.02 11.5768 7.88C11.0768 7.73 10.5868 7.655 10.1068 7.655C9.2568 7.655 8.6168 7.81 8.1868 8.12C7.7668 8.43 7.5568 8.83 7.5568 9.32C7.5568 9.68 7.6768 9.975 7.9168 10.205C8.1568 10.425 8.4518 10.6 8.8018 10.73C9.1618 10.85 9.6468 10.98 10.2568 11.12C11.0468 11.31 11.6818 11.5 12.1618 11.69C12.6418 11.88 13.0518 12.17 13.3918 12.56C13.7418 12.95 13.9168 13.475 13.9168 14.135C13.9168 14.685 13.7668 15.19 13.4668 15.65C13.1668 16.1 12.7118 16.46 12.1018 16.73C11.4918 16.99 10.7418 17.12 9.8518 17.12ZM19.5282 12.335L17.6082 14.285V17H16.1082V6.5H17.6082V12.365L23.3082 6.5H25.0182L20.5332 11.225L25.3032 17H23.5482L19.5282 12.335ZM26.8895 6.5H28.3895V17H26.8895V6.5ZM35.628 6.5C36.988 6.5 38.058 6.825 38.838 7.475C39.618 8.125 40.008 9.02 40.008 10.16C40.008 11.3 39.618 12.195 38.838 12.845C38.058 13.495 36.988 13.82 35.628 13.82H33.033V17H31.533V6.5H35.628ZM35.583 12.515C36.533 12.515 37.258 12.315 37.758 11.915C38.258 11.505 38.508 10.92 38.508 10.16C38.508 9.4 38.258 8.82 37.758 8.42C37.258 8.01 36.533 7.805 35.583 7.805H33.033V12.515H35.583Z" fill="white"/>
</svg>
